<mxfile host="app.diagrams.net" modified="2022-03-30T15:21:14.785Z" agent="5.0 (Macintosh)" etag="ymEnFYEb9t9FVxe0IhL0" version="16.6.6" type="github">
  <diagram id="jpuq988MyLIWssS1KbEf" name="Tokenomics">
    <mxGraphModel dx="1310" dy="702" grid="1" gridSize="10" guides="1" tooltips="1" connect="1" arrows="1" fold="1" page="1" pageScale="1" pageWidth="1169" pageHeight="827" math="0" shadow="0">
      <root>
        <mxCell id="0" />
        <mxCell id="1" parent="0" />
        <mxCell id="yCxXFOpQgSl_8h9aCPPC-25" value="" style="rounded=1;whiteSpace=wrap;html=1;fontSize=14;strokeWidth=1;" parent="1" vertex="1">
          <mxGeometry x="430" y="70" width="400" height="60" as="geometry" />
        </mxCell>
        <mxCell id="yCxXFOpQgSl_8h9aCPPC-10" value="" style="rounded=0;whiteSpace=wrap;html=1;fontSize=14;strokeWidth=1;" parent="1" vertex="1">
          <mxGeometry x="40" y="360" width="600" height="300" as="geometry" />
        </mxCell>
        <mxCell id="yCxXFOpQgSl_8h9aCPPC-26" style="edgeStyle=orthogonalEdgeStyle;rounded=0;orthogonalLoop=1;jettySize=auto;html=1;exitX=0;exitY=1;exitDx=0;exitDy=0;entryX=0.5;entryY=0;entryDx=0;entryDy=0;fontSize=14;" parent="1" source="yCxXFOpQgSl_8h9aCPPC-3" target="yCxXFOpQgSl_8h9aCPPC-4" edge="1">
          <mxGeometry relative="1" as="geometry" />
        </mxCell>
        <mxCell id="yCxXFOpQgSl_8h9aCPPC-34" style="edgeStyle=orthogonalEdgeStyle;rounded=0;orthogonalLoop=1;jettySize=auto;html=1;exitX=0.25;exitY=1;exitDx=0;exitDy=0;entryX=0.5;entryY=0;entryDx=0;entryDy=0;fontSize=16;" parent="1" source="yCxXFOpQgSl_8h9aCPPC-3" target="yCxXFOpQgSl_8h9aCPPC-27" edge="1">
          <mxGeometry relative="1" as="geometry" />
        </mxCell>
        <mxCell id="yCxXFOpQgSl_8h9aCPPC-38" style="edgeStyle=orthogonalEdgeStyle;rounded=0;orthogonalLoop=1;jettySize=auto;html=1;exitX=0.5;exitY=1;exitDx=0;exitDy=0;entryX=0.5;entryY=0;entryDx=0;entryDy=0;fontSize=16;" parent="1" source="yCxXFOpQgSl_8h9aCPPC-3" target="yCxXFOpQgSl_8h9aCPPC-37" edge="1">
          <mxGeometry relative="1" as="geometry" />
        </mxCell>
        <mxCell id="yCxXFOpQgSl_8h9aCPPC-3" value="&lt;div&gt;&lt;h2 class=&quot;sc-bdfBwQ Text-msjfkz-0 Heading-juwhnu-0 cnOLEs bjHQTa&quot;&gt;Dual-Token Economy/Model (Two-Token Economy)&lt;/h2&gt; &lt;/div&gt;" style="text;html=1;strokeColor=none;fillColor=none;align=center;verticalAlign=middle;whiteSpace=wrap;rounded=0;strokeWidth=1;" parent="1" vertex="1">
          <mxGeometry x="440" y="70" width="380" height="60" as="geometry" />
        </mxCell>
        <mxCell id="yCxXFOpQgSl_8h9aCPPC-22" style="edgeStyle=orthogonalEdgeStyle;rounded=0;orthogonalLoop=1;jettySize=auto;html=1;exitX=0.5;exitY=1;exitDx=0;exitDy=0;entryX=0.5;entryY=0;entryDx=0;entryDy=0;fontSize=14;" parent="1" source="yCxXFOpQgSl_8h9aCPPC-4" target="yCxXFOpQgSl_8h9aCPPC-10" edge="1">
          <mxGeometry relative="1" as="geometry" />
        </mxCell>
        <mxCell id="yCxXFOpQgSl_8h9aCPPC-4" value="&lt;span style=&quot;left: 103px ; top: 135.213px ; font-size: 14.6667px ; font-family: sans-serif ; transform: scalex(1.07922)&quot; dir=&quot;ltr&quot;&gt;Staking Duration&lt;/span&gt;" style="rounded=0;whiteSpace=wrap;html=1;fontSize=14;strokeWidth=1;" parent="1" vertex="1">
          <mxGeometry x="280" y="280" width="120" height="60" as="geometry" />
        </mxCell>
        <mxCell id="yCxXFOpQgSl_8h9aCPPC-16" style="edgeStyle=orthogonalEdgeStyle;rounded=0;orthogonalLoop=1;jettySize=auto;html=1;exitX=0.5;exitY=1;exitDx=0;exitDy=0;entryX=0.5;entryY=0;entryDx=0;entryDy=0;fontSize=14;" parent="1" source="yCxXFOpQgSl_8h9aCPPC-5" target="yCxXFOpQgSl_8h9aCPPC-11" edge="1">
          <mxGeometry relative="1" as="geometry" />
        </mxCell>
        <mxCell id="yCxXFOpQgSl_8h9aCPPC-5" value="90 days" style="rounded=0;whiteSpace=wrap;html=1;fontSize=14;strokeWidth=1;" parent="1" vertex="1">
          <mxGeometry x="70" y="380" width="120" height="60" as="geometry" />
        </mxCell>
        <mxCell id="yCxXFOpQgSl_8h9aCPPC-17" style="edgeStyle=orthogonalEdgeStyle;rounded=0;orthogonalLoop=1;jettySize=auto;html=1;exitX=0.5;exitY=1;exitDx=0;exitDy=0;entryX=0.5;entryY=0;entryDx=0;entryDy=0;fontSize=14;" parent="1" source="yCxXFOpQgSl_8h9aCPPC-6" target="yCxXFOpQgSl_8h9aCPPC-12" edge="1">
          <mxGeometry relative="1" as="geometry" />
        </mxCell>
        <mxCell id="yCxXFOpQgSl_8h9aCPPC-6" value="180 days" style="rounded=0;whiteSpace=wrap;html=1;fontSize=14;strokeWidth=1;" parent="1" vertex="1">
          <mxGeometry x="210" y="380" width="120" height="60" as="geometry" />
        </mxCell>
        <mxCell id="yCxXFOpQgSl_8h9aCPPC-18" style="edgeStyle=orthogonalEdgeStyle;rounded=0;orthogonalLoop=1;jettySize=auto;html=1;exitX=0.5;exitY=1;exitDx=0;exitDy=0;entryX=0.5;entryY=0;entryDx=0;entryDy=0;fontSize=14;" parent="1" source="yCxXFOpQgSl_8h9aCPPC-7" target="yCxXFOpQgSl_8h9aCPPC-13" edge="1">
          <mxGeometry relative="1" as="geometry" />
        </mxCell>
        <mxCell id="yCxXFOpQgSl_8h9aCPPC-7" value="360 days" style="rounded=0;whiteSpace=wrap;html=1;fontSize=14;strokeWidth=1;" parent="1" vertex="1">
          <mxGeometry x="350" y="380" width="120" height="60" as="geometry" />
        </mxCell>
        <mxCell id="yCxXFOpQgSl_8h9aCPPC-20" style="edgeStyle=orthogonalEdgeStyle;rounded=0;orthogonalLoop=1;jettySize=auto;html=1;exitX=0.5;exitY=1;exitDx=0;exitDy=0;entryX=0.5;entryY=0;entryDx=0;entryDy=0;fontSize=14;" parent="1" source="yCxXFOpQgSl_8h9aCPPC-8" target="yCxXFOpQgSl_8h9aCPPC-15" edge="1">
          <mxGeometry relative="1" as="geometry" />
        </mxCell>
        <mxCell id="yCxXFOpQgSl_8h9aCPPC-8" value="720 days" style="rounded=0;whiteSpace=wrap;html=1;fontSize=14;strokeWidth=1;" parent="1" vertex="1">
          <mxGeometry x="494.5" y="380" width="120" height="60" as="geometry" />
        </mxCell>
        <mxCell id="yCxXFOpQgSl_8h9aCPPC-11" value="&lt;span style=&quot;left: 390.521px ; top: 171.469px ; font-size: 14.6667px ; font-family: sans-serif ; transform: scalex(1.05576)&quot; dir=&quot;ltr&quot;&gt;15%&lt;/span&gt;" style="rounded=0;whiteSpace=wrap;html=1;fontSize=14;strokeWidth=1;" parent="1" vertex="1">
          <mxGeometry x="70" y="460" width="120" height="60" as="geometry" />
        </mxCell>
        <mxCell id="yCxXFOpQgSl_8h9aCPPC-12" value="35%" style="rounded=0;whiteSpace=wrap;html=1;fontSize=14;strokeWidth=1;" parent="1" vertex="1">
          <mxGeometry x="210" y="460" width="120" height="60" as="geometry" />
        </mxCell>
        <mxCell id="yCxXFOpQgSl_8h9aCPPC-13" value="75%" style="rounded=0;whiteSpace=wrap;html=1;fontSize=14;strokeWidth=1;" parent="1" vertex="1">
          <mxGeometry x="350" y="460" width="120" height="60" as="geometry" />
        </mxCell>
        <mxCell id="yCxXFOpQgSl_8h9aCPPC-14" style="edgeStyle=orthogonalEdgeStyle;rounded=0;orthogonalLoop=1;jettySize=auto;html=1;exitX=1;exitY=0.75;exitDx=0;exitDy=0;entryX=1;entryY=0.5;entryDx=0;entryDy=0;fontSize=14;" parent="1" source="yCxXFOpQgSl_8h9aCPPC-13" target="yCxXFOpQgSl_8h9aCPPC-13" edge="1">
          <mxGeometry relative="1" as="geometry" />
        </mxCell>
        <mxCell id="yCxXFOpQgSl_8h9aCPPC-15" value="100%" style="rounded=0;whiteSpace=wrap;html=1;fontSize=14;strokeWidth=1;" parent="1" vertex="1">
          <mxGeometry x="494.5" y="460" width="120" height="60" as="geometry" />
        </mxCell>
        <mxCell id="yCxXFOpQgSl_8h9aCPPC-21" value="&lt;span style=&quot;left: 96px ; top: 772.443px ; font-size: 14.6667px ; font-family: sans-serif ; transform: scalex(0.978154)&quot; dir=&quot;ltr&quot;&gt;In&lt;/span&gt;&lt;span style=&quot;left: 107.95px ; top: 772.443px ; font-size: 14.6667px ; font-family: sans-serif&quot; dir=&quot;ltr&quot;&gt; &lt;/span&gt;&lt;span style=&quot;left: 121.016px ; top: 772.443px ; font-size: 14.6667px ; font-family: sans-serif ; transform: scalex(1.03113)&quot; dir=&quot;ltr&quot;&gt;addition&lt;/span&gt;&lt;span style=&quot;left: 173.965px ; top: 772.443px ; font-size: 14.6667px ; font-family: sans-serif&quot; dir=&quot;ltr&quot;&gt; &lt;/span&gt;&lt;span style=&quot;left: 187.031px ; top: 772.443px ; font-size: 14.6667px ; font-family: sans-serif ; transform: scalex(1.05255)&quot; dir=&quot;ltr&quot;&gt;to&lt;/span&gt;&lt;span style=&quot;left: 199.889px ; top: 772.443px ; font-size: 14.6667px ; font-family: sans-serif&quot; dir=&quot;ltr&quot;&gt; &lt;/span&gt;&lt;span style=&quot;left: 212.955px ; top: 772.443px ; font-size: 14.6667px ; font-family: sans-serif ; transform: scalex(1.02019)&quot; dir=&quot;ltr&quot;&gt;this,&lt;/span&gt;&lt;span style=&quot;left: 240.382px ; top: 772.443px ; font-size: 14.6667px ; font-family: sans-serif&quot; dir=&quot;ltr&quot;&gt; &lt;/span&gt;&lt;span style=&quot;left: 253.451px ; top: 772.443px ; font-size: 14.6667px ; font-family: sans-serif ; transform: scalex(1.01365)&quot; dir=&quot;ltr&quot;&gt;the&lt;/span&gt;&lt;span style=&quot;left: 274.095px ; top: 772.443px ; font-size: 14.6667px ; font-family: sans-serif&quot; dir=&quot;ltr&quot;&gt; &lt;/span&gt;&lt;span style=&quot;left: 287.162px ; top: 772.443px ; font-size: 14.6667px ; font-family: sans-serif ; transform: scalex(1.02301)&quot; dir=&quot;ltr&quot;&gt;minting&lt;/span&gt;&lt;span style=&quot;left: 335.516px ; top: 772.443px ; font-size: 14.6667px ; font-family: sans-serif&quot; dir=&quot;ltr&quot;&gt; &lt;/span&gt;&lt;span style=&quot;left: 347.582px ; top: 772.443px ; font-size: 14.6667px ; font-family: sans-serif ; transform: scalex(1.01727)&quot; dir=&quot;ltr&quot;&gt;staking&lt;/span&gt;&lt;span style=&quot;left: 394.834px ; top: 772.443px ; font-size: 14.6667px ; font-family: sans-serif&quot; dir=&quot;ltr&quot;&gt; &lt;/span&gt;&lt;span style=&quot;left: 406.9px ; top: 772.443px ; font-size: 14.6667px ; font-family: sans-serif ; transform: scalex(1.03092)&quot; dir=&quot;ltr&quot;&gt;limit&lt;/span&gt;&lt;span style=&quot;left: 433.79px ; top: 772.443px ; font-size: 14.6667px ; font-family: sans-serif&quot; dir=&quot;ltr&quot;&gt; &lt;/span&gt;&lt;span style=&quot;left: 445.859px ; top: 772.443px ; font-size: 14.6667px ; font-family: sans-serif ; transform: scalex(1.0234)&quot; dir=&quot;ltr&quot;&gt;will&lt;/span&gt;&lt;span style=&quot;left: 466.736px ; top: 772.443px ; font-size: 14.6667px ; font-family: sans-serif&quot; dir=&quot;ltr&quot;&gt; &lt;/span&gt;&lt;span style=&quot;left: 478.806px ; top: 772.443px ; font-size: 14.6667px ; font-family: sans-serif ; transform: scalex(0.987695)&quot; dir=&quot;ltr&quot;&gt;rise&lt;/span&gt;&lt;span style=&quot;left: 502.149px ; top: 772.443px ; font-size: 14.6667px ; font-family: sans-serif&quot; dir=&quot;ltr&quot;&gt; &lt;/span&gt;&lt;span style=&quot;left: 514.215px ; top: 772.443px ; font-size: 14.6667px ; font-family: sans-serif ; transform: scalex(1.00522)&quot; dir=&quot;ltr&quot;&gt;simultaneously&lt;/span&gt;&lt;span style=&quot;left: 611.704px ; top: 772.443px ; font-size: 14.6667px ; font-family: sans-serif&quot; dir=&quot;ltr&quot;&gt; &lt;/span&gt;&lt;span style=&quot;left: 623.771px ; top: 772.443px ; font-size: 14.6667px ; font-family: sans-serif ; transform: scalex(0.986668)&quot; dir=&quot;ltr&quot;&gt;every&lt;/span&gt;&lt;span style=&quot;left: 659.143px ; top: 772.443px ; font-size: 14.6667px ; font-family: sans-serif&quot; dir=&quot;ltr&quot;&gt; &lt;/span&gt;&lt;span style=&quot;left: 671.21px ; top: 772.443px ; font-size: 14.6667px ; font-family: sans-serif ; transform: scalex(1.00786)&quot; dir=&quot;ltr&quot;&gt;minute:&lt;/span&gt;&lt;br&gt;&lt;span style=&quot;left: 96px ; top: 793.7px ; font-size: 14.6667px ; font-family: sans-serif ; transform: scalex(1.00489)&quot; dir=&quot;ltr&quot;&gt;50000^(1.01^t), meaning there will be no more than 50,000 TONs worth of KWT available at 0.1&lt;/span&gt;&lt;br&gt;&lt;span style=&quot;left: 96px ; top: 814.956px ; font-size: 14.6667px ; font-family: sans-serif ; transform: scalex(0.999247)&quot; dir=&quot;ltr&quot;&gt;TON rate, no more than 55,713 TONs (=50000^1.01) at 0.11 rate and so on.&lt;/span&gt;" style="text;whiteSpace=wrap;html=1;fontSize=14;" parent="1" vertex="1">
          <mxGeometry x="70" y="540" width="550" height="90" as="geometry" />
        </mxCell>
        <mxCell id="yCxXFOpQgSl_8h9aCPPC-36" style="edgeStyle=orthogonalEdgeStyle;rounded=0;orthogonalLoop=1;jettySize=auto;html=1;exitX=0.5;exitY=1;exitDx=0;exitDy=0;entryX=0.5;entryY=0;entryDx=0;entryDy=0;fontSize=16;" parent="1" source="yCxXFOpQgSl_8h9aCPPC-27" target="yCxXFOpQgSl_8h9aCPPC-32" edge="1">
          <mxGeometry relative="1" as="geometry" />
        </mxCell>
        <mxCell id="yCxXFOpQgSl_8h9aCPPC-27" value="Smart Contracts" style="rounded=0;whiteSpace=wrap;html=1;fontSize=14;strokeWidth=1;" parent="1" vertex="1">
          <mxGeometry x="810" y="280" width="120" height="60" as="geometry" />
        </mxCell>
        <mxCell id="yCxXFOpQgSl_8h9aCPPC-32" value="EVA TIP-3.1" style="swimlane;fontSize=14;strokeWidth=1;" parent="1" vertex="1">
          <mxGeometry x="700" y="360" width="350" height="150" as="geometry" />
        </mxCell>
        <mxCell id="yCxXFOpQgSl_8h9aCPPC-33" value="&lt;span style=&quot;left: 96px ; top: 400.378px ; font-size: 16px ; font-family: sans-serif ; transform: scalex(1.08039)&quot; dir=&quot;ltr&quot;&gt;ACADEMY smart contract is a TIP-3.1 smart contract. The Root (Mintofarm) controls total supply,&lt;/span&gt;&lt;span style=&quot;left: 96px ; top: 421.633px ; font-size: 16px ; font-family: sans-serif ; transform: scalex(1.03201)&quot; dir=&quot;ltr&quot;&gt;airdrop and minting of new tokens in exchange for TONs that have been locked for one of the&lt;/span&gt;&lt;span style=&quot;left: 96px ; top: 442.89px ; font-size: 16px ; font-family: sans-serif ; transform: scalex(1.00907)&quot; dir=&quot;ltr&quot;&gt; three lock periods: 90, 180, 360.&lt;/span&gt;" style="text;html=1;strokeColor=none;fillColor=none;align=left;verticalAlign=middle;whiteSpace=wrap;rounded=0;fontSize=16;" parent="yCxXFOpQgSl_8h9aCPPC-32" vertex="1">
          <mxGeometry x="5" y="30" width="350" height="110" as="geometry" />
        </mxCell>
        <mxCell id="yCxXFOpQgSl_8h9aCPPC-48" style="edgeStyle=orthogonalEdgeStyle;rounded=0;orthogonalLoop=1;jettySize=auto;html=1;exitX=0;exitY=1;exitDx=0;exitDy=0;fontSize=16;" parent="1" source="yCxXFOpQgSl_8h9aCPPC-37" target="yCxXFOpQgSl_8h9aCPPC-42" edge="1">
          <mxGeometry relative="1" as="geometry" />
        </mxCell>
        <mxCell id="yCxXFOpQgSl_8h9aCPPC-49" style="edgeStyle=orthogonalEdgeStyle;rounded=0;orthogonalLoop=1;jettySize=auto;html=1;exitX=0.5;exitY=1;exitDx=0;exitDy=0;entryX=0.5;entryY=0;entryDx=0;entryDy=0;fontSize=16;" parent="1" source="yCxXFOpQgSl_8h9aCPPC-37" target="yCxXFOpQgSl_8h9aCPPC-44" edge="1">
          <mxGeometry relative="1" as="geometry" />
        </mxCell>
        <mxCell id="yCxXFOpQgSl_8h9aCPPC-50" style="edgeStyle=orthogonalEdgeStyle;rounded=0;orthogonalLoop=1;jettySize=auto;html=1;exitX=1;exitY=1;exitDx=0;exitDy=0;entryX=0.5;entryY=0;entryDx=0;entryDy=0;fontSize=16;" parent="1" source="yCxXFOpQgSl_8h9aCPPC-37" target="yCxXFOpQgSl_8h9aCPPC-43" edge="1">
          <mxGeometry relative="1" as="geometry" />
        </mxCell>
        <mxCell id="yCxXFOpQgSl_8h9aCPPC-37" value="Token allocation" style="rounded=0;whiteSpace=wrap;html=1;fontSize=14;strokeWidth=1;" parent="1" vertex="1">
          <mxGeometry x="1310" y="280" width="120" height="60" as="geometry" />
        </mxCell>
        <mxCell id="yCxXFOpQgSl_8h9aCPPC-39" value="no more than 25%" style="rounded=0;whiteSpace=wrap;html=1;fontSize=16;strokeWidth=1;" parent="1" vertex="1">
          <mxGeometry x="1169" y="480" width="121" height="60" as="geometry" />
        </mxCell>
        <mxCell id="yCxXFOpQgSl_8h9aCPPC-42" value="&lt;div&gt;Early Investors&lt;/div&gt;&lt;div&gt;/Core Team&lt;/div&gt;" style="rounded=0;whiteSpace=wrap;html=1;fontSize=16;strokeWidth=1;" parent="1" vertex="1">
          <mxGeometry x="1169" y="400" width="121" height="60" as="geometry" />
        </mxCell>
        <mxCell id="yCxXFOpQgSl_8h9aCPPC-43" value="Farming" style="rounded=0;whiteSpace=wrap;html=1;fontSize=16;strokeWidth=1;" parent="1" vertex="1">
          <mxGeometry x="1400" y="400" width="101" height="60" as="geometry" />
        </mxCell>
        <mxCell id="yCxXFOpQgSl_8h9aCPPC-44" value="Marketing" style="rounded=0;whiteSpace=wrap;html=1;fontSize=16;strokeWidth=1;" parent="1" vertex="1">
          <mxGeometry x="1300" y="400" width="90" height="60" as="geometry" />
        </mxCell>
        <mxCell id="yCxXFOpQgSl_8h9aCPPC-46" value="10%" style="rounded=0;whiteSpace=wrap;html=1;fontSize=16;strokeWidth=1;" parent="1" vertex="1">
          <mxGeometry x="1300" y="480" width="90" height="60" as="geometry" />
        </mxCell>
        <mxCell id="yCxXFOpQgSl_8h9aCPPC-47" value="30%" style="rounded=0;whiteSpace=wrap;html=1;fontSize=16;strokeWidth=1;" parent="1" vertex="1">
          <mxGeometry x="1400" y="480" width="100" height="60" as="geometry" />
        </mxCell>
      </root>
    </mxGraphModel>
  </diagram>
</mxfile>
